<svg width="277" height="66" viewBox="0 0 277 66" fill="none" xmlns="http://www.w3.org/2000/svg">
<path d="M86.6339 0V14.3712H99.3089L93.2327 23.996L87.1566 32.9615V46.0143H121V32.9615H109.24L121 14.3712V0H86.6339Z" fill="#EBDED1"/>
<path d="M50.9611 14.3712V0H85.3272V14.3712L73.567 32.9615H85.3272V46.0143H51.4838V32.9615L57.5599 23.996L63.6361 14.3712H50.9611Z" fill="#EBDED1"/>
<path d="M34.3661 21.8864L63.6361 65.0001H44.5583L34.3661 51.0244L25.8726 65.0001H6.40281L34.3661 21.8864Z" fill="#EBDED1"/>
<path d="M0 18.0629C12.8056 20.1724 22.0832 13.3164 22.0832 0H40.2462C40.8996 22.2819 22.2138 38.7628 0 36.9169V18.0629Z" fill="#EBDED1"/>
<path d="M180.076 48.9105C180.076 51.7597 177.924 51.7597 177.869 48.9105V0H171.899H162V42.7374C162 71.7038 196 73.1291 196 42.7381V0.00644784L180.076 0.013488V48.9105Z" fill="#EBDED1"/>
<path d="M121.017 14.5609C133.739 16.4764 141 12.1561 141 0.0644531H159.044C159.694 20.297 143.085 34.6763 121.017 33.0003V14.5609Z" fill="#EBDED1"/>
<path d="M121.017 46.012C133.739 47.9275 143.016 41.5916 143.016 29.5H161.016C161.665 49.7325 143.069 66.6843 121 65.0083L121.017 46.012Z" fill="#EBDED1"/>
<path d="M121.017 14.5609C133.739 16.4764 141 12.1561 141 0.0644531H159.044C159.694 20.297 143.085 34.6763 121.017 33.0003V14.5609Z" fill="#EBDED1"/>
<path fill-rule="evenodd" clip-rule="evenodd" d="M231.387 0.013512L218.826 0H198V42.8132L198 64.6964C245.856 64.4102 265.055 66.5265 272.51 62.492C277.468 59.8089 277.232 54.4053 276.777 43.7655C276.421 35.4401 276.625 28.6972 276.79 23.2362C277.466 0.927005 277.493 0.013512 236.03 0.013512H231.387ZM205.212 9.75808C205.314 9.95733 205.212 51.1397 205.212 51.1397C205.212 51.1397 202.885 51.6176 202.315 51.1397C201.745 50.6618 202.329 10.0368 202.315 9.75808C202.301 9.47939 205.111 9.55882 205.212 9.75808Z" fill="#EBDED1"/>
</svg>
